<?xml version="1.0" encoding="UTF-8"?><!-- Generator: Adobe Illustrator 23.0.2, SVG Export Plug-In . SVG Version: 6.00 Build 0)  --><svg xmlns="http://www.w3.org/2000/svg" enable-background="new 0 0 116.28 71.86" id="Layer_1" version="1.1" viewBox="0 0 116.28 71.86" x="0px" xml:space="preserve" y="0px">
<g id="change1_1"><path d="m66.31 17.25c-0.01 0.06-0.04 0.11-0.07 0.17-0.02 0.04-0.03 0.09-0.05 0.13-0.03 0.06-0.08 0.1-0.13 0.15-0.03 0.03-0.05 0.07-0.08 0.09-0.05 0.05-0.11 0.08-0.17 0.11-0.03 0.02-0.06 0.05-0.1 0.06-0.1 0.04-0.21 0.07-0.32 0.07l-25.74 1.47c-0.16 0.01-13.64 0.86-22.95 7.31-3.83 3.08-6.41 6.34-7.79 9.83-1.06 3.16-1.25 6.7-0.55 10.59 0.11 0.6 0.24 1.18 0.37 1.75 0.14 0.59 0.3 1.17 0.47 1.73 0.01 0.04 0.03 0.08 0.04 0.12 1.4 4.28 3.9 7.37 7.47 9.2 6.59 3.38 15.48 1.87 21.02 0.35 1.19-0.39 2.22-0.77 3.01-1.09-3.75-2.14-6.97-4.51-8.06-8.08-0.34-0.91-0.46-1.77-0.33-2.56 0.09-0.85 0.44-1.62 1.04-2.26 1.37-1.46 3.84-2.06 6.05-2.3 0.65-0.08 1.13-0.1 1.29-0.1h0.02c1.14-0.06 2.11-0.03 2.66 0 3.28 0.16 20.4 0.61 20.57 0.62 0.26 0.01 0.52 0.12 0.7 0.31s0.27 0.45 0.26 0.72l-0.74 15.8 48.94-26.75-43.95-31.82-2.88 14.38z" fill="#2BCCCA"/></g>
<g id="change2_1"><path d="m115.93 34.29c-0.06-0.05-0.13-0.09-0.2-0.12-0.03-0.04-0.05-0.09-0.09-0.12-0.02-0.01-0.03-0.03-0.05-0.04l-46.48-33.63c-0.02-0.02-0.05-0.03-0.08-0.04-0.03-0.04-0.06-0.08-0.1-0.11-0.06-0.05-0.13-0.09-0.2-0.13-0.4-0.19-0.88-0.1-1.17 0.24l-6.45 7.37c-0.13 0.15-0.21 0.33-0.24 0.53l-0.99 8.14-20.33 1.16c-0.21 0.01-5.13 0.3-11.21 1.97-3.78 1.04-8.49 2.78-12.59 5.58-0.02 0.01-0.05 0.01-0.07 0.03-6.46 3.98-23.65 14.54-11.37 35.18 11.77 19.78 33.05 8.19 33.26 8.08 0.11-0.06 0.21-0.15 0.3-0.25l6.2-7.94c0.28-0.35 0.28-0.85 0.01-1.2-0.11-0.15-0.27-0.25-0.43-0.31-0.05-0.05-0.11-0.09-0.17-0.13-2.02-1.09-3.73-2.11-5.12-3.16 0.25-0.83 1.14-2.57 4.23-3.61 3.8-1.28 11.81-0.2 14.38 0.2l0.04 18.16c0 0.34 0.18 0.65 0.46 0.83s0.64 0.2 0.94 0.06l50.44-23.49c0.18-0.08 0.33-0.22 0.43-0.39l6.86-11.6c0.23-0.38 0.17-0.86-0.14-1.18-0.02-0.04-0.05-0.06-0.07-0.08zm-51.7 27.15l0.74-15.8c0.01-0.26-0.08-0.52-0.26-0.72s-0.43-0.31-0.7-0.31c-0.17 0-17.29-0.45-20.57-0.62-0.55-0.03-1.52-0.05-2.66 0h-0.02c-0.17 0-0.65 0.03-1.29 0.1-2.21 0.23-4.68 0.84-6.05 2.3-0.6 0.64-0.95 1.41-1.04 2.26-0.13 0.79-0.01 1.65 0.33 2.56 1.09 3.57 4.31 5.95 8.06 8.08-0.79 0.32-1.82 0.7-3.01 1.09-5.54 1.52-14.42 3.03-21.02-0.35-3.57-1.83-6.07-4.92-7.47-9.2-0.01-0.04-0.03-0.08-0.04-0.12-0.18-0.55-0.33-1.13-0.47-1.73-0.14-0.57-0.27-1.15-0.37-1.75-0.7-3.88-0.51-7.42 0.55-10.59 1.37-3.49 3.96-6.75 7.79-9.83 9.31-6.46 22.79-7.3 22.95-7.31l25.74-1.47c0.11-0.01 0.22-0.03 0.32-0.07 0.04-0.01 0.06-0.04 0.1-0.06 0.06-0.03 0.12-0.06 0.17-0.11 0.03-0.03 0.05-0.06 0.08-0.09 0.04-0.05 0.09-0.1 0.13-0.15 0.02-0.04 0.03-0.09 0.05-0.13 0.02-0.06 0.05-0.11 0.07-0.17l2.88-14.38 43.98 31.82-48.97 26.75z" fill="#231F20"/></g>
</svg>